<?xml version="1.0" encoding="UTF-8" standalone="yes"?>
<!-- Created with sK1/UniConvertor (http://sk1project.org/) -->
<svg xmlns="http://www.w3.org/2000/svg" xmlns:xlink="http://www.w3.org/1999/xlink"
  width="595.276pt" height="841.89pt" viewBox="0 0 595.276 841.89"
  fill-rule="evenodd">
<g>
<path style="stroke:#000000; stroke-width:0.85; stroke-linejoin:round; stroke-linecap:round; fill:none" d="M 96.1654 514.913L 88.8661 516.189L 81.6378 518.031L 74.6929 520.37L 67.8898 523.205L 61.2992 526.465L 54.9921 530.22L 49.0394 534.402L 43.2992 538.937L 37.9134 543.898L 32.8819 549.142L 28.2047 554.811L 23.9528 560.764L 20.126 567.071L 16.7244 573.591L 13.8189 580.394L 11.4094 587.48L 9.92126 592.724L 9.14173 597.402L 8.7874 603.071L 8.71654 611.362L 8.7874 619.583L 9.14173 625.535L 9.92126 630.638L 11.2677 636.378L 13.0394 641.976L 15.1654 647.787L 17.7165 653.669L 20.6929 659.693L 24.0945 665.929L 27.9921 672.236L 32.2441 678.685L 36.9921 685.276L 42.6614 693.213L 47.3386 700.299L 51.0945 706.748L 54.0709 712.913L 56.2677 719.008L 57.9685 725.244L 59.1024 731.906L 59.8819 739.205L 60.3071 743.386L 60.8032 746.858L 61.4409 749.764L 62.2913 752.173L 63.3543 754.157L 64.7008 755.787L 66.3307 757.205L 68.315 758.409L 72 760.394L 72 783.992L 72.0709 795.047L 72.2835 802.559L 72.7087 807.094L 73.2756 809.079L 77.7402 812.551L 86.1732 818.079L 95.1024 823.535L 100.984 826.583L 105.094 827.433L 110.126 827.858L 112.606 827.717L 115.299 827.22L 118.134 826.37L 121.252 825.024L 128.693 821.126L 137.976 815.102L 146.48 809.362L 146.835 784.701L 146.976 772.157L 147.26 764.575L 147.685 760.89L 148.394 759.898L 150.449 759.118L 153.071 757.134L 155.622 754.583L 157.535 751.961L 158.74 746.717L 159.874 737.787L 160.512 732.26L 161.291 727.299L 162.213 722.835L 163.346 718.795L 164.764 714.969L 166.394 711.354L 168.307 707.882L 170.575 704.409L 171.425 703.134L 171.921 702.142L 171.992 701.362L 171.638 700.724L 169.583 700.087L 165.472 699.874L 159.024 699.874L 156.898 704.055L 153.496 711.78L 150.874 719.717L 149.102 727.795L 148.323 735.874L 147.614 743.669L 146.835 747.567L 144.567 748.559L 140.386 748.913L 135 748.913L 135 721.417L 135 693.921L 131.811 691.866L 129.472 690.803L 125.929 690.236L 119.622 689.953L 108.992 689.882L 89.5039 689.882L 87.0236 693.567L 86.1732 694.843L 85.5354 696.118L 85.1102 697.748L 84.7559 700.087L 84.4016 708.165L 84.189 723.118L 83.9055 748.913L 78.5197 748.913L 74.5512 748.701L 72.7087 748.063L 72 744.307L 71.0787 736.37L 70.1575 729.142L 68.8819 722.409L 67.1811 715.89L 64.9843 709.724L 62.2913 703.63L 59.1024 697.606L 55.3465 691.583L 51.0236 685.417L 44.7165 676.843L 39.4724 669.26L 35.0787 662.457L 31.4646 656.22L 28.4882 650.339L 26.0787 644.669L 24.0236 638.929L 22.3228 632.906L 21.189 628.016L 20.4094 622.913L 19.9134 617.598L 19.7717 612.283L 19.8425 607.039L 20.2677 601.866L 20.9055 596.976L 21.8976 592.37L 23.6693 586.488L 25.937 580.748L 28.5591 575.22L 31.6772 569.835L 35.0787 564.661L 38.9055 559.701L 43.0157 555.024L 47.4095 550.559L 52.1575 546.449L 57.1181 542.622L 62.3622 539.15L 67.8189 536.031L 73.4173 533.268L 79.2283 530.929L 85.1102 528.945L 91.2047 527.457L 99.7087 526.323L 109.701 525.969L 119.551 526.252L 127.701 527.386L 134.433 529.016L 141.024 531.142L 147.26 533.622L 153.071 536.386L 158.528 539.575L 163.417 542.976L 167.811 546.591L 171.496 550.417L 175.465 555.307L 179.008 560.268L 182.197 565.299L 184.961 570.402L 187.37 575.504L 189.354 580.748L 190.913 585.921L 192.118 591.165L 193.323 597.898L 199.134 597.898L 204.803 597.898L 204.307 593.575L 203.031 587.197L 200.835 579.685L 198.213 572.102L 195.378 565.583L 192.898 560.906L 190.205 556.441L 187.37 552.189L 184.323 548.15L 181.063 544.323L 177.591 540.709L 174.047 537.378L 170.22 534.189L 166.252 531.213L 162.071 528.52L 157.748 525.969L 153.283 523.701L 148.606 521.646L 143.717 519.803L 138.685 518.173L 133.512 516.756L 125.079 515.409L 114.803 514.559L 104.598 514.346L 96.1654 514.913z"/>
<path style="stroke:#000000; stroke-width:0.85; stroke-linejoin:round; stroke-linecap:round; fill:none" d="M 125.22 698.598L 126.142 700.157L 126.709 703.772L 126.921 711.283L 126.992 724.606L 126.992 748.913L 109.984 748.913L 92.9764 748.913L 92.9764 723.898L 93.0472 710.362L 93.3307 702.78L 93.5433 700.583L 93.8268 699.236L 94.252 698.457L 94.8189 697.961L 99.9213 697.181L 109.913 696.898L 116.787 696.969L 121.181 697.181L 123.732 697.748L 125.22 698.598z"/>
<path style="stroke:#000000; stroke-width:0.85; stroke-linejoin:round; stroke-linecap:round; fill:none" d="M 137.976 763.299L 137.835 764.575L 137.197 765.354L 135.78 765.921L 133.299 766.276L 112.535 767.906L 89.2205 769.181L 81 769.394L 81 765.071L 81 760.89L 109.488 760.89L 137.976 760.89L 137.976 763.299z"/>
<path style="stroke:#000000; stroke-width:0.85; stroke-linejoin:round; stroke-linecap:round; fill:none" d="M 137.835 777.614L 137.48 782.362L 116.008 784.063L 98.8583 785.409L 87.8031 786.26L 81 786.898L 81 781.866L 81 776.906L 85.3228 776.764L 94.3937 776.197L 110.48 774.921L 118.913 774.213L 126.354 773.646L 131.882 773.22L 134.787 773.008L 138.118 772.866L 137.835 777.614z"/>
<path style="stroke:#000000; stroke-width:0.85; stroke-linejoin:round; stroke-linecap:round; fill:none" d="M 137.976 793.913L 137.906 796.535L 137.622 798.094L 136.984 798.732L 135.78 798.874L 127.134 799.512L 109.488 800.858L 91.7008 802.346L 83.3386 802.63L 81.6378 802.205L 81 801.425L 80.9291 800.858L 80.9291 800.15L 81 799.37L 81 798.378L 81.0709 795.189L 81.2835 793.772L 89.3622 793.063L 108.496 791.362L 127.984 789.803L 136.772 789.024L 137.339 789.236L 137.693 790.157L 137.906 791.646L 137.976 793.913z"/>
<path style="stroke:#000000; stroke-width:0.85; stroke-linejoin:round; stroke-linecap:round; fill:none" d="M 130.11 809.858L 123.874 813.898L 109.984 813.898L 102.402 813.827L 97.7244 813.543L 94.748 812.835L 92.2677 811.559L 88.5118 809.362L 107.504 807.803L 122.386 806.598L 131.386 805.961L 136.276 805.89L 130.11 809.858z"/>
<path style="stroke:#000000; stroke-width:0.85; stroke-linejoin:round; stroke-linecap:round; fill:none" d="M 238.89 604.772L 236.976 607.323L 236.126 609.945L 236.268 612.709L 237.402 615.756L 238.89 617.669L 240.945 619.299L 243.283 620.433L 245.48 620.858L 247.252 620.646L 249.024 620.008L 250.583 618.945L 252.071 617.598L 253.276 616.039L 254.197 614.268L 254.764 612.354L 254.976 610.37L 254.764 608.882L 254.126 607.394L 253.205 605.976L 251.929 604.63L 250.512 603.496L 248.882 602.646L 247.181 602.079L 245.48 601.866L 243.638 602.079L 242.008 602.575L 240.449 603.425L 238.89 604.772z"/>
<path style="stroke:#000000; stroke-width:0.85; stroke-linejoin:round; stroke-linecap:round; fill:none" d="M 168.024 648.921L 168.024 688.89L 177.52 688.89L 187.016 688.89L 187.016 671.386L 187.157 659.622L 188.008 652.535L 188.787 650.268L 189.921 648.567L 191.409 647.15L 193.323 645.874L 194.882 645.024L 196.583 644.457L 198.283 644.102L 199.984 643.961L 203.528 644.457L 206.787 645.874L 208.63 647.15L 210.047 648.638L 211.11 650.48L 211.89 652.89L 212.811 660.118L 213.024 671.882L 213.024 688.89L 222.591 688.89L 232.228 688.89L 231.803 668.622L 231.591 657.354L 231.165 650.693L 230.386 646.724L 229.11 643.606L 226.205 638.929L 222.307 634.535L 217.913 630.709L 213.307 627.874L 208.205 626.173L 202.039 625.181L 195.874 624.969L 190.701 625.677L 187.016 626.669L 187.016 617.811L 187.016 608.882L 177.52 608.882L 168.024 608.882L 168.024 648.921z"/>
<path style="stroke:#000000; stroke-width:0.85; stroke-linejoin:round; stroke-linecap:round; fill:none" d="M 259.228 637.087L 259.441 653.173L 259.795 662.173L 260.575 666.921L 261.921 670.181L 263.976 673.866L 266.528 677.126L 269.362 680.031L 272.622 682.512L 276.236 684.638L 280.134 686.339L 284.386 687.614L 288.921 688.465L 294.024 689.173L 294.024 679.677L 294.024 670.181L 289.913 669.472L 286.795 668.835L 284.244 667.843L 282.189 666.425L 280.559 664.583L 279.425 662.244L 278.575 659.409L 278.15 656.008L 278.008 651.898L 278.008 643.89L 286.016 643.89L 294.024 643.89L 294.024 634.394L 294.024 624.898L 286.016 624.898L 278.008 624.898L 278.008 616.89L 278.008 608.882L 268.37 608.882L 258.874 608.882L 259.228 637.087z"/>
<path style="stroke:#000000; stroke-width:0.85; stroke-linejoin:round; stroke-linecap:round; fill:none" d="M 55.2047 645.094L 55.3465 652.819L 55.6299 658.913L 56.126 663.732L 56.8346 667.559L 57.9685 670.677L 59.5276 673.441L 61.5827 676.063L 64.2047 678.898L 66.2598 680.882L 68.5276 682.583L 70.8661 684.142L 73.4173 685.417L 78.7323 687.331L 84.2598 688.323L 89.9291 688.323L 95.5276 687.402L 98.2205 686.622L 100.913 685.559L 103.465 684.213L 105.874 682.724L 109.276 680.315L 114.732 683.504L 119.835 686.126L 125.079 687.827L 130.252 688.606L 135.354 688.535L 140.386 687.472L 145.276 685.63L 149.882 682.866L 154.205 679.181L 156.969 676.346L 159.094 673.583L 160.724 670.748L 161.929 667.488L 162.78 663.52L 163.276 658.559L 163.63 652.323L 163.772 644.598L 164.197 624.898L 154.63 624.898L 144.992 624.898L 144.992 642.189L 144.921 651.26L 144.638 656.929L 144.142 660.402L 143.22 662.811L 141.661 665.008L 139.819 666.85L 137.622 668.268L 135.213 669.189L 132.732 669.685L 130.181 669.614L 127.701 669.047L 125.291 667.913L 123.378 666.638L 121.89 665.22L 120.827 663.52L 120.047 661.181L 119.197 654.165L 118.984 642.402L 118.984 624.898L 109.63 624.898L 100.134 624.898L 99.7795 643.323L 99.6378 650.339L 99.4252 655.795L 99 659.976L 98.2913 663.024L 97.2283 665.15L 95.7402 666.709L 93.7559 667.913L 91.2047 668.906L 88.8661 669.614L 87.0236 669.898L 85.1811 669.614L 82.7717 668.906L 80.8583 667.984L 79.0866 666.921L 77.5984 665.575L 76.3228 664.016L 75.0472 661.677L 74.3386 658.559L 74.0551 652.748L 73.9843 642.756L 73.9843 624.898L 64.4173 624.898L 54.9213 624.898L 55.2047 645.094z"/>
<path style="stroke:#000000; stroke-width:0.85; stroke-linejoin:round; stroke-linecap:round; fill:none" d="M 235.984 698.386L 235.984 771.874L 245.48 771.874L 254.976 771.874L 254.976 698.386L 254.976 624.898L 245.48 624.898L 235.984 624.898L 235.984 698.386z"/>
<path style="stroke:#000000; stroke-width:0.85; stroke-linejoin:round; stroke-linecap:round; fill:none" d="M 314.929 629.291L 310.465 631.205L 306.567 633.543L 303.307 636.307L 300.543 639.567L 298.417 643.181L 296.929 647.15L 296.008 651.614L 295.724 656.362L 296.008 660.898L 296.787 665.079L 298.205 668.906L 300.118 672.52L 302.528 675.709L 305.504 678.614L 308.976 681.165L 312.874 683.291L 315.638 684.354L 318.685 684.992L 322.512 685.276L 327.969 685.417L 332.22 685.276L 335.976 684.992L 339.307 684.425L 342.283 683.646L 344.976 682.512L 347.457 681.094L 349.866 679.252L 352.276 677.055L 354.26 675L 355.394 673.299L 355.89 671.315L 356.031 668.693L 356.031 663.874L 352.134 666L 349.724 667.063L 347.244 667.843L 344.693 668.409L 342.142 668.693L 339.661 668.693L 337.181 668.409L 334.913 667.913L 332.787 667.063L 329.386 664.937L 327.189 662.882L 326.835 662.244L 326.764 661.748L 327.118 661.394L 328.11 661.11L 332.433 660.898L 341.008 660.898L 348.307 660.827L 352.913 660.614L 355.323 660.189L 356.031 659.622L 355.606 655.866L 354.614 651.047L 353.268 646.228L 351.992 642.756L 349.087 638.717L 345.047 634.748L 342.709 632.976L 340.37 631.488L 337.961 630.213L 335.693 629.362L 330.591 628.37L 324.85 628.016L 319.394 628.299L 314.929 629.291z"/>
<path style="stroke:#000000; stroke-width:0.85; stroke-linejoin:round; stroke-linecap:round; fill:none" d="M 334.984 643.89L 336.402 645.591L 336.969 646.795L 337.181 647.858L 337.606 649.276L 337.677 650.126L 336.827 650.622L 334.701 650.835L 331.016 650.906L 327.26 650.835L 325.205 650.622L 324.354 650.126L 324.425 649.276L 324.78 647.858L 324.992 646.795L 325.63 645.307L 327.26 643.677L 329.244 642.402L 331.016 641.906L 333 642.472L 334.984 643.89z"/>
<path style="stroke:#000000; stroke-width:0.85; stroke-linejoin:round; stroke-linecap:round; fill:none" d="M 428.528 674.291L 426.047 675.638L 423.921 677.409L 422.15 679.535L 420.732 681.874L 419.811 684.425L 419.386 687.047L 419.386 689.669L 420.024 692.291L 420.803 694.346L 421.866 696.26L 423.142 697.89L 424.559 699.378L 426.189 700.583L 427.89 701.575L 429.732 702.425L 431.646 702.921L 435.543 703.346L 439.512 702.709L 441.354 702L 443.197 701.008L 444.969 699.803L 446.598 698.315L 448.441 695.976L 449.717 693.496L 450.496 691.016L 450.78 688.465L 450.567 685.984L 449.929 683.646L 448.937 681.307L 447.591 679.252L 445.961 677.339L 443.976 675.78L 441.85 674.433L 439.441 673.512L 436.89 672.945L 434.197 672.874L 431.362 673.299L 428.528 674.291z"/>
<path style="stroke:#000000; stroke-width:0.85; stroke-linejoin:round; stroke-linecap:round; fill:none" d="M 441.78 677.906L 444.118 679.89L 446.102 682.654L 447.449 685.63L 448.016 688.465L 447.378 691.583L 445.748 694.559L 443.339 697.181L 440.291 699.094L 437.669 699.945L 434.976 700.299L 432.496 700.087L 430.087 699.307L 427.89 698.102L 425.976 696.331L 424.346 694.205L 423.071 691.583L 422.22 688.961L 422.079 687.189L 422.646 686.197L 423.921 685.913L 424.913 686.055L 425.551 686.622L 425.906 687.756L 426.189 689.598L 426.402 691.299L 426.827 692.433L 427.323 693.142L 428.031 693.425L 428.669 693.142L 429.165 692.433L 429.591 691.299L 429.803 689.598L 430.016 687.969L 430.37 686.835L 430.937 686.126L 431.575 685.913L 432.567 685.559L 432.992 684.921L 431.504 684.142L 428.031 683.858L 425.197 683.858L 423.85 683.575L 423.496 682.937L 423.992 681.803L 425.906 679.606L 428.669 677.693L 431.858 676.417L 434.976 675.921L 438.449 676.488L 441.78 677.906z"/>
<path style="stroke:#000000; stroke-width:0.85; stroke-linejoin:round; stroke-linecap:round; fill:none" d="M 433.984 688.89L 434.268 692.079L 434.976 693.709L 435.402 693.921L 435.898 693.709L 436.394 692.929L 436.819 691.724L 437.315 689.457L 438.094 691.724L 438.945 693.354L 439.937 693.78L 440.858 693.071L 441.78 691.087L 442.772 688.394L 442.913 691.157L 443.055 692.646L 443.409 693.496L 443.835 693.85L 444.331 693.567L 445.252 691.795L 445.819 688.606L 445.89 685.984L 445.677 684.567L 444.969 684L 443.693 683.858L 442.63 684.071L 441.638 684.496L 440.858 685.134L 440.22 686.055L 439.087 688.394L 439.087 686.055L 438.945 685.063L 438.449 684.354L 437.669 684L 436.465 683.858L 435.118 684L 434.409 684.638L 434.055 686.126L 433.984 688.89z"/>
<path style="stroke:#000000; stroke-width:0.85; stroke-linejoin:round; stroke-linecap:round; fill:none" d="M 189.992 729.354L 189.992 772.866L 209.976 772.866L 230.031 772.866L 230.031 763.37L 230.031 753.874L 219.472 753.874L 208.984 753.874L 208.984 719.858L 208.984 685.913L 199.488 685.913L 189.992 685.913L 189.992 729.354z"/>
<path style="stroke:#000000; stroke-width:0.85; stroke-linejoin:round; stroke-linecap:round; fill:none" d="M 326.976 732.898L 326.976 772.866L 336.472 772.866L 345.969 772.866L 345.969 755.362L 346.181 743.598L 347.031 736.583L 347.811 734.315L 348.945 732.543L 350.362 731.126L 352.276 729.921L 353.906 729.071L 355.535 728.433L 357.236 728.079L 359.008 728.008L 362.48 728.504L 365.811 729.921L 367.583 731.197L 369.071 732.614L 370.134 734.457L 370.913 736.866L 371.764 744.165L 371.976 755.858L 371.976 772.866L 381.614 772.866L 391.181 772.866L 390.827 752.598L 390.543 741.402L 390.189 734.74L 389.409 730.772L 388.134 727.583L 385.157 722.906L 381.331 718.512L 376.937 714.685L 372.331 711.921L 367.228 710.15L 361.063 709.157L 354.827 708.945L 349.724 709.724L 345.969 710.717L 345.969 701.787L 345.969 692.858L 336.472 692.858L 326.976 692.858L 326.976 732.898z"/>
<path style="stroke:#000000; stroke-width:0.85; stroke-linejoin:round; stroke-linecap:round; fill:none" d="M 395.22 721.063L 395.433 737.22L 395.787 746.22L 396.567 750.898L 397.913 754.157L 400.039 757.843L 402.52 761.102L 405.354 764.008L 408.614 766.559L 412.228 768.614L 416.126 770.315L 420.378 771.661L 424.913 772.512L 430.016 773.22L 430.016 763.724L 430.016 754.157L 425.906 753.52L 422.787 752.811L 420.236 751.819L 418.181 750.402L 416.551 748.559L 415.417 746.291L 414.567 743.386L 414.142 739.984L 414 735.874L 414 727.866L 422.008 727.866L 430.016 727.866L 430.016 718.37L 430.016 708.874L 422.008 708.874L 414 708.874L 414 700.866L 414 692.858L 404.433 692.858L 394.866 692.858L 395.22 721.063z"/>
<path style="stroke:#000000; stroke-width:0.85; stroke-linejoin:round; stroke-linecap:round; fill:none" d="M 280.984 710.504L 276.024 712.772L 271.488 715.748L 267.591 719.362L 264.189 723.614L 262.134 726.945L 260.929 729.85L 260.433 733.535L 260.22 739.417L 260.079 744.874L 260.291 748.559L 260.858 751.394L 261.992 754.157L 263.268 756.638L 264.827 758.976L 266.528 761.102L 268.512 763.087L 272.835 766.63L 277.724 769.465L 282.969 771.449L 288.567 772.583L 294.165 772.866L 299.835 772.087L 302.74 771.591L 304.016 771.874L 303.236 773.787L 301.394 776.48L 299.055 779.031L 297 780.591L 294.236 781.512L 291.331 781.866L 288 781.866L 288 791.504L 288 801.213L 294.094 800.575L 298.276 799.937L 302.315 798.732L 306.142 797.031L 309.685 794.835L 312.945 792.213L 315.85 789.165L 318.331 785.764L 320.386 782.008L 321.52 778.89L 322.157 774.638L 322.441 767.339L 322.512 754.866L 322.441 742.11L 322.157 734.811L 321.449 730.772L 320.102 727.583L 317.197 722.906L 313.299 718.512L 308.906 714.685L 304.299 711.921L 301.748 710.858L 298.843 710.079L 295.795 709.512L 292.606 709.228L 289.417 709.157L 286.37 709.299L 283.535 709.795L 280.984 710.504z"/>
<path style="stroke:#000000; stroke-width:0.85; stroke-linejoin:round; stroke-linecap:round; fill:none" d="M 297.78 729.921L 299.409 731.055L 300.685 732.402L 301.748 733.819L 302.598 735.449L 303.52 738.85L 303.52 742.394L 302.669 745.866L 300.898 748.913L 299.693 750.26L 298.276 751.465L 296.717 752.386L 294.874 753.094L 292.819 753.52L 290.693 753.661L 288.638 753.449L 286.654 752.882L 284.811 752.102L 283.11 750.969L 281.622 749.622L 280.276 747.992L 279.071 745.795L 278.362 743.669L 278.079 741.472L 278.15 739.346L 278.575 737.291L 279.354 735.378L 280.417 733.535L 281.764 731.976L 283.323 730.559L 285.024 729.425L 286.937 728.575L 288.992 728.079L 291.118 727.937L 293.315 728.15L 295.583 728.787L 297.78 729.921z"/>
<path style="stroke:#000000; stroke-width:0.85; stroke-linejoin:round; stroke-linecap:round; fill:none" d="M 260.008 812.906L 260.008 822.898L 267.024 822.898L 270.78 822.827L 272.835 822.543L 273.827 821.976L 273.969 820.913L 273.827 819.85L 273.26 819.283L 271.984 818.929L 270 818.858L 266.031 818.858L 266.031 810.921L 266.031 802.913L 262.984 802.913L 260.008 802.913L 260.008 812.906z"/>
<path style="stroke:#000000; stroke-width:0.85; stroke-linejoin:round; stroke-linecap:round; fill:none" d="M 276.024 812.906L 276.024 822.898L 283.535 822.898L 287.575 822.827L 289.772 822.543L 290.764 821.976L 290.976 820.913L 290.835 819.85L 290.197 819.283L 288.78 818.929L 286.512 818.858L 284.173 818.787L 282.827 818.504L 282.189 817.937L 281.976 816.874L 282.118 815.882L 282.685 815.315L 283.748 814.961L 285.52 814.89L 287.22 814.819L 288.283 814.465L 288.85 813.898L 288.992 812.906L 288.85 811.913L 288.283 811.276L 287.22 810.992L 285.52 810.921L 283.748 810.78L 282.685 810.496L 282.118 809.858L 281.976 808.866L 282.189 807.874L 282.827 807.236L 284.173 806.953L 286.512 806.882L 288.78 806.811L 290.197 806.528L 290.835 805.89L 290.976 804.898L 290.764 803.835L 289.772 803.197L 287.575 802.984L 283.535 802.913L 276.024 802.913L 276.024 812.906z"/>
<path style="stroke:#000000; stroke-width:0.85; stroke-linejoin:round; stroke-linecap:round; fill:none" d="M 293.031 812.906L 293.031 822.898L 298.63 822.898L 301.606 822.756L 303.661 822.402L 305.362 821.48L 307.134 819.992L 308.551 818.362L 309.402 816.803L 309.898 815.102L 309.969 812.906L 309.898 810.709L 309.402 808.937L 308.551 807.378L 307.134 805.819L 305.362 804.26L 303.661 803.409L 301.606 802.984L 298.63 802.913L 293.031 802.913L 293.031 812.906z"/>
<path style="stroke:#000000; stroke-width:0.85; stroke-linejoin:round; stroke-linecap:round; fill:none" d="M 303.378 810.213L 303.803 812.906L 303.378 815.528L 302.953 816.661L 302.315 817.654L 301.535 818.291L 300.685 818.717L 299.835 818.646L 299.268 817.866L 299.055 816.094L 298.984 812.906L 299.055 809.717L 299.268 807.874L 299.835 807.094L 300.685 807.094L 302.244 808.157L 303.378 810.213z"/>
<path style="stroke:#000000; stroke-width:0.85; stroke-linejoin:round; stroke-linecap:round; fill:none" d="M 320.031 812.906L 320.031 822.898L 326.976 822.898L 330.732 822.827L 332.858 822.543L 333.78 821.976L 333.992 820.913L 333.85 819.85L 333.213 819.283L 332.008 818.929L 330.024 818.858L 325.984 818.858L 325.984 810.921L 325.984 802.913L 323.008 802.913L 320.031 802.913L 320.031 812.906z"/>
<path style="stroke:#000000; stroke-width:0.85; stroke-linejoin:round; stroke-linecap:round; fill:none" d="M 335.976 804.898L 336.118 805.89L 336.614 806.457L 337.535 806.811L 339.024 806.882L 340.441 806.811L 341.362 806.457L 341.858 805.89L 342 804.898L 341.858 803.906L 341.362 803.268L 340.441 802.984L 339.024 802.913L 337.535 802.984L 336.614 803.268L 336.118 803.906L 335.976 804.898z"/>
<path style="stroke:#000000; stroke-width:0.85; stroke-linejoin:round; stroke-linecap:round; fill:none" d="M 360.992 812.906L 360.992 822.898L 363.898 822.898L 365.598 822.756L 366.52 822.189L 366.945 820.63L 367.228 817.724L 367.441 815.244L 367.795 813.472L 368.291 812.409L 368.717 811.984L 369.213 812.268L 369.638 813.26L 369.921 814.89L 369.992 817.299L 370.063 820.559L 370.346 822.189L 371.268 822.827L 372.969 822.898L 374.74 822.827L 375.591 822.189L 375.945 820.417L 376.016 817.087L 375.732 812.48L 374.74 809.575L 373.89 808.724L 372.898 808.228L 371.693 808.016L 370.205 808.157L 368.433 808.512L 367.441 808.299L 367.087 807.52L 367.016 805.89L 366.945 804.26L 366.52 803.409L 365.598 802.984L 363.969 802.913L 360.992 802.913L 360.992 812.906z"/>
<path style="stroke:#000000; stroke-width:0.85; stroke-linejoin:round; stroke-linecap:round; fill:none" d="M 378.992 805.394L 378.709 807.165L 378 807.874L 377.291 808.512L 377.008 809.858L 377.291 811.276L 378 811.913L 378.709 813.118L 378.992 816.165L 379.276 819.425L 380.197 821.48L 380.976 822.118L 381.969 822.543L 383.173 822.827L 384.732 822.898L 386.291 822.827L 387.354 822.472L 387.85 821.906L 387.992 820.913L 387.567 819.496L 386.504 818.858L 385.866 818.646L 385.37 818.008L 385.087 816.945L 385.016 815.386L 385.087 813.827L 385.37 812.764L 385.866 812.126L 386.504 811.913L 387.567 811.276L 387.992 809.858L 387.567 808.512L 386.504 807.874L 385.866 807.732L 385.441 807.236L 385.087 806.457L 385.016 805.394L 384.874 804.118L 384.449 803.339L 383.528 802.984L 381.969 802.913L 380.48 802.984L 379.559 803.339L 379.134 804.118L 378.992 805.394z"/>
<path style="stroke:#000000; stroke-width:0.85; stroke-linejoin:round; stroke-linecap:round; fill:none" d="M 389.976 804.898L 390.118 805.89L 390.614 806.457L 391.535 806.811L 393.024 806.882L 394.441 806.811L 395.362 806.457L 395.858 805.89L 396 804.898L 395.858 803.906L 395.362 803.268L 394.441 802.984L 393.024 802.913L 391.535 802.984L 390.614 803.268L 390.118 803.906L 389.976 804.898z"/>
<path style="stroke:#000000; stroke-width:0.85; stroke-linejoin:round; stroke-linecap:round; fill:none" d="M 354.969 806.386L 353.268 807.449L 351 807.874L 348.378 808.441L 345.898 809.787L 344.693 810.921L 344.126 811.772L 344.197 812.693L 344.693 813.756L 345.189 814.748L 345.402 815.457L 345.26 816.024L 344.906 816.378L 344.268 817.512L 344.126 819.213L 343.984 821.339L 343.488 823.323L 343.276 824.315L 343.417 825.165L 343.913 825.945L 344.764 826.654L 347.528 827.575L 351.567 827.858L 355.252 827.575L 357.874 826.654L 358.795 825.945L 359.504 825.094L 359.858 824.102L 360 822.969L 359.575 821.268L 358.299 819.921L 356.102 818.858L 352.913 818.008L 348.52 817.087L 352.134 817.016L 353.764 816.803L 355.252 816.449L 356.457 815.811L 357.378 815.102L 358.087 814.181L 358.441 813.189L 358.37 812.126L 358.016 810.992L 357.52 809.929L 357.449 809.291L 357.732 809.008L 358.512 808.866L 359.575 808.299L 360 806.882L 359.858 806.102L 359.504 805.465L 358.866 805.11L 358.157 804.898L 356.528 805.181L 354.969 806.386z"/>
<path style="stroke:#000000; stroke-width:0.85; stroke-linejoin:round; stroke-linecap:round; fill:none" d="M 352.984 812.409L 352.559 813.472L 351.496 813.898L 350.433 813.472L 350.008 812.409L 350.433 811.346L 351.496 810.921L 352.559 811.346L 352.984 812.409z"/>
<path style="stroke:#000000; stroke-width:0.85; stroke-linejoin:round; stroke-linecap:round; fill:none" d="M 354.472 823.89L 353.409 824.598L 351.496 824.882L 349.654 824.598L 348.52 823.89L 348.52 823.465L 349.016 823.181L 350.079 822.969L 351.496 822.898L 352.984 822.969L 353.976 823.181L 354.543 823.465L 354.472 823.89z"/>
<path style="stroke:#000000; stroke-width:0.85; stroke-linejoin:round; stroke-linecap:round; fill:none" d="M 425.976 806.386L 424.276 807.449L 422.008 807.874L 419.386 808.441L 416.906 809.787L 415.701 810.921L 415.134 811.772L 415.205 812.693L 415.701 813.756L 416.197 814.748L 416.409 815.457L 416.268 816.024L 415.913 816.378L 415.205 817.512L 415.134 819.213L 414.992 821.339L 414.496 823.323L 414.283 824.315L 414.354 825.165L 414.921 825.945L 415.772 826.654L 418.535 827.575L 422.575 827.858L 426.26 827.575L 428.882 826.654L 429.803 825.945L 430.441 825.094L 430.866 824.102L 431.008 822.969L 430.583 821.268L 429.307 819.921L 427.11 818.858L 423.921 818.008L 419.528 817.087L 423.071 817.016L 424.772 816.803L 426.26 816.449L 427.465 815.811L 428.386 815.102L 429.094 814.181L 429.449 813.189L 429.378 812.126L 429.024 810.992L 428.528 809.929L 428.457 809.291L 428.74 809.008L 429.52 808.866L 430.583 808.299L 431.008 806.882L 430.866 806.102L 430.441 805.465L 429.874 805.11L 429.165 804.898L 427.535 805.181L 425.976 806.386z"/>
<path style="stroke:#000000; stroke-width:0.85; stroke-linejoin:round; stroke-linecap:round; fill:none" d="M 423.992 812.409L 423.567 813.472L 422.504 813.898L 421.441 813.472L 421.016 812.409L 421.441 811.346L 422.504 810.921L 423.567 811.346L 423.992 812.409z"/>
<path style="stroke:#000000; stroke-width:0.85; stroke-linejoin:round; stroke-linecap:round; fill:none" d="M 425.48 823.89L 424.346 824.598L 422.504 824.882L 420.591 824.598L 419.528 823.89L 419.457 823.465L 420.024 823.181L 421.016 822.969L 422.504 822.898L 423.921 822.969L 424.984 823.181L 425.48 823.465L 425.48 823.89z"/>
<path style="stroke:#000000; stroke-width:0.85; stroke-linejoin:round; stroke-linecap:round; fill:none" d="M 335.976 815.386L 335.976 822.898L 339.024 822.898L 342 822.898L 342 815.386L 342 807.874L 339.024 807.874L 335.976 807.874L 335.976 815.386z"/>
<path style="stroke:#000000; stroke-width:0.85; stroke-linejoin:round; stroke-linecap:round; fill:none" d="M 389.976 815.386L 389.976 822.898L 393.024 822.898L 396 822.898L 396 815.386L 396 807.874L 393.024 807.874L 389.976 807.874L 389.976 815.386z"/>
<path style="stroke:#000000; stroke-width:0.85; stroke-linejoin:round; stroke-linecap:round; fill:none" d="M 397.984 815.457L 397.984 822.898L 400.89 822.898L 402.591 822.756L 403.512 822.189L 403.937 820.63L 404.22 817.724L 404.433 815.244L 404.787 813.472L 405.283 812.409L 405.78 811.984L 406.205 812.268L 406.63 813.26L 406.913 814.89L 406.984 817.299L 407.055 820.559L 407.409 822.189L 408.26 822.827L 410.031 822.898L 411.732 822.827L 412.654 822.189L 412.937 820.559L 413.008 817.299L 412.937 814.465L 412.724 812.268L 412.37 810.638L 411.661 809.504L 410.598 808.724L 409.11 808.228L 407.055 808.016L 404.504 808.016L 397.984 808.016L 397.984 815.457z"/>
</g>
</svg>